<svg t="1617607448151" class="icon" viewBox="0 0 1024 1024" version="1.1" xmlns="http://www.w3.org/2000/svg" p-id="4668" width="16" height="16"><path d="M483.584 179.968a304.64 304.64 0 1 1-215.296 89.344 302.592 302.592 0 0 1 215.296-89.344m0-102.4a407.04 407.04 0 1 0 407.04 407.04 407.04 407.04 0 0 0-407.04-407.04z" fill="#4C4C4C" p-id="4669"></path><path d="M737.792 681.728a50.944 50.944 0 0 0-36.096 87.04l161.28 161.28a50.944 50.944 0 0 0 72.192 0 50.944 50.944 0 0 0 0-72.192l-161.28-161.28a50.944 50.944 0 0 0-36.096-14.848z" fill="#4C4C4C" p-id="4670"></path><path d="M659.968 477.44a51.456 51.456 0 0 1-72.448 0L478.72 368.896a51.456 51.456 0 0 1 0-72.448 51.456 51.456 0 0 1 72.448 0l108.544 108.544a51.456 51.456 0 0 1 0.256 72.448z" fill="#FCC53A" p-id="4671"></path></svg>